<svg aria-hidden="true" style="position: absolute; width: 0; height: 0; overflow: hidden;" version="1.1" xmlns="http://www.w3.org/2000/svg" xmlns:xlink="http://www.w3.org/1999/xlink">
<defs>
<symbol id="icon-noactive-click" viewBox="0 0 16 16">
<path  d="M11.461 4.489c0.164-0.144 0.383-0.224 0.61-0.223s0.444 0.084 0.606 0.231c0.162 0.147 0.256 0.346 0.262 0.555s-0.076 0.413-0.23 0.567l-4.655 5.374c-0.080 0.080-0.177 0.143-0.284 0.188s-0.223 0.068-0.341 0.070c-0.118 0.002-0.234-0.018-0.344-0.059s-0.208-0.101-0.291-0.178l-3.087-2.85c-0.086-0.074-0.155-0.163-0.203-0.262s-0.074-0.206-0.076-0.314c-0.002-0.108 0.020-0.216 0.064-0.317s0.11-0.192 0.193-0.269c0.083-0.077 0.182-0.137 0.291-0.178s0.226-0.061 0.343-0.059c0.117 0.002 0.233 0.026 0.341 0.070s0.204 0.108 0.284 0.187l2.443 2.254 4.052-4.765c0.007-0.008 0.015-0.016 0.023-0.024h-0.001z"></path>
<path fill="none" stroke="#2e2f42" style="stroke: var(--color2, #2e2f42)" stroke-linejoin="miter" stroke-linecap="butt" stroke-miterlimit="4" stroke-width="1.25" d="M2 0.625h12c0.759 0 1.375 0.616 1.375 1.375v12c0 0.759-0.616 1.375-1.375 1.375h-12c-0.759 0-1.375-0.616-1.375-1.375v-12c0-0.759 0.616-1.375 1.375-1.375z"></path>
</symbol>
</defs>
</svg>
